# xmcd
#
# Track frame offsets:
#	150
#	16154
#	35349
#	53518
#	70870
#	94089
#	116572
#	130479
#	148395
#	162504
#	181513
#
# Disc length: 2594 seconds
#
# Revision: 10
# Processed by: cddbd v1.5.2PL0 Copyright (c) Steve Scherf et al.
# Submitted via: EasyCDDAExtractor 16.0.6.1
#
DISCID=910a200b
DTITLE=Poco - C-127 Legacy
DYEAR=1989
DGENRE=Country
TTITLE0=When It All Began
TTITLE1=Call It Love
TTITLE2=The Nature Of Love
TTITLE3=What Do People Know
TTITLE4=Nothin' To Hide
TTITLE5=Look Within
TTITLE6=Rough Edges
TTITLE7=Who Else
TTITLE8=Lovin' You Every Minute
TTITLE9=If It Wasn't For You
TTITLE10=Follow Your Dreams
EXTD=
EXTT0=
EXTT1=
EXTT2=
EXTT3=
EXTT4=
EXTT5=
EXTT6=
EXTT7=
EXTT8=
EXTT9=
EXTT10=
PLAYORDER=
